<svg width="218" height="259" viewBox="0 0 218 259" fill="none" xmlns="http://www.w3.org/2000/svg">
    <g filter="url(#filter0_d_22_5)">
        <path d="M108.938 6L178.981 76.0425C192.832 89.8853 202.268 107.525 206.093 126.731C209.918 145.937 207.961 165.846 200.47 183.94C192.979 202.033 180.29 217.499 164.008 228.38C147.726 239.261 128.583 245.069 109 245.069C89.4169 245.069 70.2737 239.261 53.9918 228.38C37.71 217.499 25.0209 202.033 17.5298 183.94C10.0386 165.846 8.08186 145.937 11.9071 126.731C15.7322 107.525 25.1675 89.8853 39.0194 76.0425L108.938 6Z" stroke="#365F7C" stroke-width="10.0531" stroke-linecap="round" stroke-linejoin="round"/>
        <path d="M71.8054 170C64.8614 170 59.7894 168.4 56.5894 165.2C53.3894 162 51.7894 156.928 51.7894 149.984V128.144C51.7894 121.136 53.3734 116.048 56.5414 112.88C59.7414 109.712 64.7974 108.128 71.7094 108.128H83.3254C89.2134 108.128 93.5974 109.36 96.4774 111.824C99.3574 114.256 100.941 118.176 101.229 123.584C101.325 124.448 101.149 125.104 100.701 125.552C100.285 126 99.6614 126.224 98.8294 126.224C97.2294 126.224 96.3494 125.376 96.1894 123.68C95.9654 119.712 94.8774 116.976 92.9254 115.472C90.9734 113.936 87.7734 113.168 83.3254 113.168H71.7094C68.0294 113.168 65.1014 113.648 62.9254 114.608C60.7494 115.536 59.1814 117.104 58.2214 119.312C57.2934 121.488 56.8294 124.432 56.8294 128.144V149.984C56.8294 153.696 57.3094 156.64 58.2694 158.816C59.2294 160.992 60.7974 162.56 62.9734 163.52C65.1494 164.48 68.0934 164.96 71.8054 164.96H83.3254C86.5894 164.96 89.1654 164.56 91.0534 163.76C92.9734 162.96 94.3334 161.616 95.1334 159.728C95.9334 157.84 96.3334 155.232 96.3334 151.904V145.904L85.8214 145.808C84.1574 145.808 83.3254 144.96 83.3254 143.264C83.3254 141.6 84.1574 140.768 85.8214 140.768L98.8774 140.864C100.541 140.864 101.373 141.696 101.373 143.36V151.904C101.373 158.24 99.9494 162.848 97.1014 165.728C94.2534 168.576 89.6614 170 83.3254 170H71.8054ZM135.743 170C128.799 170 123.727 168.4 120.527 165.2C117.327 162 115.727 156.928 115.727 149.984V128.096C115.727 121.088 117.327 116 120.527 112.832C123.727 109.632 128.767 108.064 135.647 108.128H147.263C154.207 108.128 159.263 109.728 162.431 112.928C165.631 116.128 167.231 121.2 167.231 128.144V149.984C167.231 156.928 165.631 162 162.431 165.2C159.263 168.4 154.207 170 147.263 170H135.743ZM135.743 164.96H147.263C150.943 164.96 153.871 164.48 156.047 163.52C158.223 162.56 159.791 160.992 160.751 158.816C161.711 156.64 162.191 153.696 162.191 149.984V128.144C162.191 124.464 161.711 121.536 160.751 119.36C159.791 117.184 158.223 115.616 156.047 114.656C153.871 113.664 150.943 113.168 147.263 113.168H135.647C131.967 113.136 129.039 113.6 126.863 114.56C124.719 115.488 123.167 117.056 122.207 119.264C121.247 121.44 120.767 124.384 120.767 128.096V149.984C120.767 153.696 121.247 156.64 122.207 158.816C123.167 160.992 124.735 162.56 126.911 163.52C129.087 164.48 132.031 164.96 135.743 164.96Z" fill="#365F7C"/>
    </g>
    <defs>
        <filter id="filter0_d_22_5" x="0.97345" y="0.97345" width="216.053" height="257.122" filterUnits="userSpaceOnUse" color-interpolation-filters="sRGB">
        <feFlood flood-opacity="0" result="BackgroundImageFix"/>
        <feColorMatrix in="SourceAlpha" type="matrix" values="0 0 0 0 0 0 0 0 0 0 0 0 0 0 0 0 0 0 127 0" result="hardAlpha"/>
        <feOffset dy="4"/>
        <feGaussianBlur stdDeviation="2"/>
        <feComposite in2="hardAlpha" operator="out"/>
        <feColorMatrix type="matrix" values="0 0 0 0 0 0 0 0 0 0 0 0 0 0 0 0 0 0 0.25 0"/>
        <feBlend mode="normal" in2="BackgroundImageFix" result="effect1_dropShadow_22_5"/>
        <feBlend mode="normal" in="SourceGraphic" in2="effect1_dropShadow_22_5" result="shape"/>
    </filter>
    </defs>
</svg>