<svg viewBox="78.771 3.039 329.079 492.434" width="329.079" height="492.434">
  <path d="M 243.311 3.039 L 224.654 23.408 C 218.621 29.997 78.771 184.557 78.771 315.753 C 78.771 414.6 152.813 495.473 243.311 495.473 C 333.808 495.473 407.85 414.6 407.85 315.753 C 407.85 185.156 267.987 29.997 261.954 23.408 L 243.311 3.039 Z M 161.033 285.799 C 176.402 285.799 188.468 298.978 188.468 315.753 C 188.468 348.702 213.144 375.66 243.311 375.66 C 258.666 375.66 270.732 388.84 270.732 405.613 C 270.732 422.388 258.666 435.567 243.311 435.567 C 182.979 435.567 133.613 381.651 133.613 315.753 C 133.613 298.978 145.679 285.799 161.033 285.799 Z" fill="#25B3E0" style=""></path>
</svg>